<svg xmlns="http://www.w3.org/2000/svg" viewBox="0 0 1252.90609 279.23765"><title>sut-logo</title><path d="M1275.04177,209.68968c0,45.02369-32.09491,81.52319-71.68422,81.52319H99.51883c-39.58934,0-71.68134-36.4995-71.68134-81.52319V99.203c0-45.02417,32.092-81.526,71.68134-81.526H1203.35755c39.58931,0,71.68422,36.50178,71.68422,81.526Z" transform="translate(-24.98659 -14.82611)" fill="#e6007e" stroke="#fff" stroke-width="5.7018"/><path d="M116.8192,139.95372c11.86316,8.09323,19.34678,14.78087,30.085,14.78087,7.90668,0,12.14144-.69049,12.857-5.49311,3.11775-20.97236-53.30156-9.48552-50.43127-61.91537,1.06395-19.45216,22.68232-34.453,63.91147-34.453,18.47557,0,37.20937,3.319,49.43175,12.484L208.31826,99.312C196.45513,88.348,188.84091,82.905,180.85611,82.33428c-10.485-.74865-15.97815,2.99573-15.47981,8.486,1.58681,17.46746,59.73262,11.4036,58.91954,55.42548-.32557,17.61229-15.51859,36.04279-47.4321,38.29785-16.23134,1.15-55.67639-.10035-73.52759-9.335Z" transform="translate(-24.98659 -14.82611)" fill="#fff"/><path d="M535.75094,55.24778V82.20884h24.21611v27.87439H535.75094v28.40066c.66027,5.38991,3.41656,8.38564,11.14474,8.38564,6.29194,0,5.84092-1.49786,11.83237-3.177V172.2739c-9.705,7.19168-23.75939,10.60477-36.34042,10.60477a39.18744,39.18744,0,0,1-27.77969-11.76281c-5.39281-5.39276-9.06762-10.52381-9.06762-23.4669V110.08323H465.00757" transform="translate(-24.98659 -14.82611)" fill="#fff"/><path d="M1048.05022,56.9436V83.90741h24.21555v27.87438h-24.21555v28.4c.65685,5.39286,3.4188,8.38858,11.14759,8.38858,6.28623,0,5.841-1.49786,11.83238-3.17647v28.58141c-9.71131,7.18826-23.76511,10.60193-36.34385,10.60193a39.19794,39.19794,0,0,1-27.77916-11.76281c-5.39048-5.39277-9.071-10.52676-9.071-23.46747V111.78179H977.30685" transform="translate(-24.98659 -14.82611)" fill="#fff"/><path d="M433.89285,55.24778V82.20884H458.109v27.87439H433.89285v28.40066c.65685,5.38991,3.416,8.38564,11.14189,8.38564,6.29194,0,5.84092-1.49786,11.83523-3.177V172.2739c-9.70846,7.19168-23.7594,10.60477-36.34385,10.60477A39.19038,39.19038,0,0,1,392.747,171.11586c-5.39276-5.39276-9.06814-10.52381-9.06814-23.4669V110.08323H363.14664" transform="translate(-24.98659 -14.82611)" fill="#fff"/><path d="M672.1933,163.33975c-11.90992,13.76471-29.68357,20.57209-47.42928,20.57209-33.37036,0-57.60586-23.91563-57.60586-52.15436,0-28.42,21.45417-49.69061,50.05558-49.69061,29.52216,0,55.49785,19.89528,51.87264,57.20729H619.69112c.18132,9.90061,10.58825,20.7556,25.25727,20.7556,10.26214,0,15.53512-1.2754,27.24491-6.62312Zm-27.68452-39.38632c-.18417-14.30183-3.94793-21.63776-14.95065-21.63776-9.90008,0-15.86929,6.41737-14.95358,21.63776Z" transform="translate(-24.98659 -14.82611)" fill="#fff"/><path d="M787.52132,56.67893h50.87093V184.37644H787.52132Z" transform="translate(-24.98659 -14.82611)" fill="#fff"/><path d="M923.36213,184.75228l-.07812-17.31693c-8.80871,10.96114-23.659,16.35675-36.605,16.35675-15.81337,0-34.90128-8.26875-34.90128-35.951V84.72039h45.03566V138.676c0,10.0671,3.4131,14.37937,11.147,14.37937,5.56838,0,8.1855-2.876,13.03545-9.70788V84.72039h49.27838v99.65605" transform="translate(-24.98659 -14.82611)" fill="#fff"/><path d="M307.41215,184.75228l-.07815-17.31693c-8.80871,10.96114-23.659,16.35675-36.60213,16.35675-15.81679,0-34.90129-8.26875-34.90129-35.951V84.72039H280.86V138.676c0,10.0671,3.41652,14.37937,11.14474,14.37937,5.57408,0,8.18836-2.876,13.04059-9.70788V84.72039h49.27837v99.65605" transform="translate(-24.98659 -14.82611)" fill="#fff"/><path d="M942.18263,62.87632a12.65949,12.65949,0,0,1-12.58387,12.76234,12.80986,12.80986,0,0,1-12.75664-12.76234,12.65544,12.65544,0,0,1,12.75664-12.581A12.50483,12.50483,0,0,1,942.18263,62.87632Zm-44.03842,0a12.66,12.66,0,0,1-12.58444,12.76234,12.81142,12.81142,0,0,1-12.76234-12.76234,12.65708,12.65708,0,0,1,12.76234-12.581A12.50531,12.50531,0,0,1,898.14421,62.87632Z" transform="translate(-24.98659 -14.82611)" fill="#fff"/><path d="M1114.63983,163.77993l-33.68162-80.08976h48.65968l12.48409,30.49436,16.00267-30.49436h44.91307l-54.585,128.39939h-55.88732Z" transform="translate(-24.98659 -14.82611)" fill="#fff"/><path d="M736.59512,95.43644c8.42446-10.485,15.5403-14.043,24.34388-14.22941,16.88241-.35921,21.031,14.34915,20.96946,22.06939-.06666,7.76471-7.55032,18.5-20.96946,18.6254-12.16654.11128-16.49307-8.11584-19.42722-8.24071-3.1462-.134-7.6005,1.12439-7.72308,7.361v63.73015l-49.81829.07527V85.578h48.97727L732.84733,97.683C732.84733,103.30151,735.25862,97.10137,736.59512,95.43644Z" transform="translate(-24.98659 -14.82611)" fill="#fff"/><path d="M246.73058,264.15815V233.65107h6.10154v30.50708Z" transform="translate(-24.98659 -14.82611)" fill="#fff"/><path d="M427.83821,264.15815V233.65107h6.10449v24.49264h15.29591v6.01444Z" transform="translate(-24.98659 -14.82611)" fill="#fff"/><path d="M528.29845,264.15815,525.9,257.35688H514.74449l-2.39843,6.80127h-6.5382l11.68226-30.50708h5.925l11.59517,30.50708Zm-12.63974-32.4718a3.3776,3.3776,0,1,1,3.39916-3.35294A3.451,3.451,0,0,1,515.65871,231.68635Zm6.188,14.3408c-.61027-1.78756-1.22054-3.616-1.52449-4.75005-.30632,1.134-.91719,2.96249-1.52746,4.75005l-1.9588,5.53451h6.97251Zm3.2694-14.3408a3.37815,3.37815,0,1,1,0-6.75506,3.3776,3.3776,0,0,1,0,6.75506Z" transform="translate(-24.98659 -14.82611)" fill="#fff"/><path d="M599.01327,264.15815l-11.19938-16.64976c-.74358-1.134-1.74431-2.65853-2.13773-3.44241,0,1.13395.08651,4.9674.08651,6.66856v13.42361h-6.01444V233.65107h5.8438L596.3974,249.774c.74358,1.13414,1.7449,2.65863,2.13832,3.44241,0-1.131-.0871-4.9674-.0871-6.66559V233.65107h6.01207v30.50708Z" transform="translate(-24.98659 -14.82611)" fill="#fff"/><path d="M317.0854,264.15815,305.886,247.50839c-.74358-1.134-1.74431-2.65853-2.13773-3.44241,0,1.13395.08651,4.9674.08651,6.66856v13.42361h-6.01444V233.65107h5.8438L314.46953,249.774c.74358,1.13414,1.7449,2.65863,2.13832,3.44241,0-1.131-.0871-4.9674-.0871-6.66559V233.65107h6.01207v30.50708Z" transform="translate(-24.98659 -14.82611)" fill="#fff"/><path d="M664.5436,264.15815h-9.11024V233.65107h9.54691c8.71385,0,15.16555,4.09653,15.16555,15.252C680.14582,259.625,672.38648,264.15815,664.5436,264.15815Zm.21685-24.58211h-3.22259v18.65418h3.00574c6.40845,0,9.32412-3.74932,9.32412-9.32719C673.86772,242.67125,671.21215,239.576,664.76045,239.576Z" transform="translate(-24.98659 -14.82611)" fill="#fff"/><path d="M723.0508,264.15815V233.65107h6.1045v24.49264h15.29827v6.01444Z" transform="translate(-24.98659 -14.82611)" fill="#fff"/><path d="M790.25957,264.15815V233.65107h21.183v5.96822H796.36348v5.27382h8.76011V250.821h-8.76011V258.187H812.102v5.97118Z" transform="translate(-24.98659 -14.82611)" fill="#fff"/><path d="M182.02736,264.15815V233.65107h21.183v5.96822h-15.079v5.27382h8.76012V250.821h-8.76012V258.187h15.7385v5.97118Z" transform="translate(-24.98659 -14.82611)" fill="#fff"/><path d="M886.45768,264.15815V252.9564c0-1.65484.08058-5.53461.08058-6.7118-.42778,1.134-1.34793,3.31265-2.13476,5.057l-6.18567,13.554-6.191-13.554c-.78091-1.74431-1.69514-3.92293-2.13477-5.057,0,1.17719.0865,5.057.0865,6.7118v11.20175h-5.97113V233.65107h5.88463l6.3646,13.81407c.78684,1.6981,1.70106,4.01,2.09448,5.09784.38749-1.13107,1.26143-3.35294,2.04826-5.09784l6.13886-13.81407h6.018v30.50708Z" transform="translate(-24.98659 -14.82611)" fill="#fff"/><path d="M139.41018,264.15815V252.9564c0-1.65484.08058-5.53461.08058-6.7118-.42778,1.134-1.34793,3.31265-2.13477,5.057l-6.18567,13.554-6.191-13.554c-.78091-1.74431-1.69513-3.92293-2.13476-5.057,0,1.17719.0865,5.057.0865,6.7118v11.20175h-5.97113V233.65107h5.88463l6.3646,13.81407c.78683,1.6981,1.70106,4.01,2.09448,5.09784.38749-1.13107,1.26142-3.35294,2.04826-5.09784l6.13886-13.81407h6.018v30.50708Z" transform="translate(-24.98659 -14.82611)" fill="#fff"/><path d="M958.93182,264.15815l-2.40139-6.80127H945.37489l-2.39546,6.80127h-6.53821l11.68227-30.50708h5.93089l11.58924,30.50708Zm-6.45106-18.131c-.61388-1.78756-1.22119-3.616-1.5281-4.75005-.3004,1.134-.91422,2.96249-1.52153,4.75005L947.47,251.56166h6.966Z" transform="translate(-24.98659 -14.82611)" fill="#fff"/><path d="M1023.65827,264.15815l-5.45038-10.98489h-6.14479v10.98489h-6.1045V233.65107h14.20453c5.752,0,10.51386,3.17934,10.51386,9.67429,0,4.57408-1.96763,7.45243-5.84973,8.97693l5.84973,11.85586Zm-3.61661-24.58211h-7.97856v7.84575h7.97856c2.82977,0,4.3513-1.30754,4.3513-3.96608C1024.393,240.71008,1022.73812,239.576,1020.04166,239.576Z" transform="translate(-24.98659 -14.82611)" fill="#fff"/><path d="M1095.50148,264.15815l-8.27955-14.73125-4.884,5.75433v8.97692h-6.09857V233.65107h6.09857v8.6706c0,1.134-.04621,3.87908-.08058,4.84011a38.25361,38.25361,0,0,1,2.39547-3.0958l8.54031-10.41491h7.36527l-8.93959,10.54526,11.20767,19.96182Z" transform="translate(-24.98659 -14.82611)" fill="#fff"/><path d="M1157.79463,239.66255v24.4956h-6.10444v-24.4956h-8.766v-6.01148h23.62522v6.01148Z" transform="translate(-24.98659 -14.82611)" fill="#fff"/></svg>